<svg width="248" height="184" viewBox="0 0 248 184" fill="none" xmlns="http://www.w3.org/2000/svg">
<g filter="url(#filter0_d_193_2)">
<path d="M120.921 160.2C124.521 160.2 129.321 156.1 135.321 147.9C141.321 139.5 147.221 128.8 153.021 115.8C159.021 102.6 162.621 96 163.821 96C165.221 96 165.921 96.8 165.921 98.4C165.921 104 163.021 112.9 157.221 125.1C141.421 158.7 128.021 175.5 117.021 175.5C107.821 175.5 101.221 173.9 97.2211 170.7C95.4211 168.9 94.5211 149.9 94.5211 113.7L45.3211 117.3C41.5211 127.7 38.1211 138.1 35.1211 148.5C32.1211 158.9 30.1211 165.3 29.1211 167.7C26.9211 172.9 21.6211 175.5 13.2211 175.5C7.62109 175.5 4.82109 173.1 4.82109 168.3C4.82109 163.5 8.62109 156.5 16.2211 147.3C17.6211 145.5 22.2211 135.8 30.0211 118.2C27.2211 118.4 24.5211 118.5 21.9211 118.5C14.9211 118.5 11.4211 115.5 11.4211 109.5C11.4211 104.1 14.2211 101.4 19.8211 101.4C20.2211 101.4 25.9211 101.9 36.9211 102.9C39.9211 95.9 43.1211 89 46.5211 82.2C72.7211 27.4 90.7211 -1.28746e-05 100.521 -1.28746e-05C107.921 -1.28746e-05 113.021 34.3 115.821 102.9H118.521C119.921 102.9 120.621 103.9 120.621 105.9C120.621 107.9 119.121 109.6 116.121 111C117.321 143.8 118.921 160.2 120.921 160.2ZM49.8211 104.4C73.2211 104.4 88.1211 104.3 94.5211 104.1C94.3211 100.9 94.1211 95.3 93.9211 87.3C93.7211 79.3 93.5211 72.4 93.3211 66.6C93.1211 60.6 92.9211 54.4 92.7211 48C91.9211 34.2 90.7211 27.3 89.1211 27.3C86.9211 27.3 82.4211 33.8 75.6211 46.8C68.8211 59.8 63.5211 70.8 59.7211 79.8C54.5211 92.8 51.2211 101 49.8211 104.4ZM178.514 95.7L195.014 93.9C196.614 93.9 198.014 94.8 199.214 96.6C200.414 98.4 201.014 100.3 201.014 102.3C201.014 104.3 200.314 111.1 198.914 122.7C197.714 134.3 197.114 143.5 197.114 150.3C197.114 156.9 197.714 160.2 198.914 160.2C202.314 160 207.014 155.8 213.014 147.6C219.014 139.2 224.914 128.5 230.714 115.5C236.714 102.5 240.314 96 241.514 96C242.914 96 243.614 96.8 243.614 98.4C243.614 104 240.714 112.9 234.914 125.1C219.114 158.7 205.814 175.5 195.014 175.5C187.214 175.5 181.314 173.9 177.314 170.7C175.914 169.3 175.214 160.6 175.214 144.6C175.214 128.6 176.914 114.9 180.314 103.5C168.714 103.5 160.614 99.8 156.014 92.4C153.614 88.6 152.414 84.3 152.414 79.5C152.414 74.7 153.414 70.5 155.414 66.9C157.414 63.3 160.214 61.5 163.814 61.5C167.614 61.5 171.014 63.5 174.014 67.5C177.214 71.3 178.814 75.6 178.814 80.4C178.814 85.2 177.414 90 174.614 94.8C175.414 95.4 176.714 95.7 178.514 95.7Z" fill="#DA0037"/>
</g>
<defs>
<filter id="filter0_d_193_2" x="0.821106" y="0" width="246.793" height="183.5" filterUnits="userSpaceOnUse" color-interpolation-filters="sRGB">
<feFlood flood-opacity="0" result="BackgroundImageFix"/>
<feColorMatrix in="SourceAlpha" type="matrix" values="0 0 0 0 0 0 0 0 0 0 0 0 0 0 0 0 0 0 127 0" result="hardAlpha"/>
<feOffset dy="4"/>
<feGaussianBlur stdDeviation="2"/>
<feComposite in2="hardAlpha" operator="out"/>
<feColorMatrix type="matrix" values="0 0 0 0 0 0 0 0 0 0 0 0 0 0 0 0 0 0 0.25 0"/>
<feBlend mode="normal" in2="BackgroundImageFix" result="effect1_dropShadow_193_2"/>
<feBlend mode="normal" in="SourceGraphic" in2="effect1_dropShadow_193_2" result="shape"/>
</filter>
</defs>
</svg>
